<?xml version="1.0" encoding="UTF-8" standalone="no"?>
<!DOCTYPE svg PUBLIC "-//W3C//DTD SVG 1.1//EN" "http://www.w3.org/Graphics/SVG/1.1/DTD/svg11.dtd">
<svg width="100%" height="100%" viewBox="0 0 263 131" version="1.1" xmlns="http://www.w3.org/2000/svg" xmlns:xlink="http://www.w3.org/1999/xlink" xml:space="preserve" xmlns:serif="http://www.serif.com/" style="fill-rule:evenodd;clip-rule:evenodd;stroke-linejoin:round;stroke-miterlimit:2;">
    <g transform="matrix(1,0,0,1,-628.956,-554.368)">
        <g transform="matrix(8.91137,0,0,8.91137,-2324.58,-1850.29)">
            <path d="M359.028,274.982L359.028,273.126L354.429,273.126L354.429,270.739L351.495,270.739L351.495,271.294L348.064,271.294L348.064,271.836L344.645,271.836L344.645,273.126L342.431,273.126L342.431,271.281L340.715,271.281L340.715,270.752L337.756,270.752L337.756,271.823L333.196,271.823L333.196,275.014L332.298,275.014L332.298,270.925L336.859,270.925L336.859,269.854L341.613,269.854L341.613,270.383L343.329,270.383L343.329,272.228L343.747,272.228L343.747,270.938L347.166,270.938L347.166,270.396L350.598,270.396L350.598,269.841L355.326,269.841L355.326,272.228L359.926,272.228L359.926,274.982L360.852,274.982L359.513,276.557L358.174,274.982L359.028,274.982ZM332.298,278.128L331.435,278.128L332.773,276.553L334.112,278.128L333.196,278.128L333.196,281.539L341.201,281.539L341.201,283.59L344.16,283.59L344.16,281.539L359.028,281.539L359.028,278.037L359.926,278.037L359.926,282.437L345.058,282.437L345.058,284.488L340.303,284.488L340.303,282.437L332.298,282.437L332.298,278.128ZM336.366,280.668L335.226,280.668L335.226,272.748L338.082,272.748L338.082,275.772L336.942,275.772L336.942,273.708L336.366,273.708L336.366,276.408L338.07,276.408L338.07,277.416L336.366,277.416L336.366,280.668ZM339.798,271.668L339.798,280.668L338.658,280.668L338.658,271.668L339.798,271.668ZM340.374,278.808L340.374,272.208L341.514,272.208L341.514,278.808L340.374,278.808ZM341.514,280.44C341.514,280.504 341.494,280.558 341.454,280.602C341.414,280.646 341.362,280.668 341.298,280.668L340.602,280.668C340.538,280.668 340.484,280.646 340.44,280.602C340.396,280.558 340.374,280.504 340.374,280.44L340.374,279.504C340.382,279.44 340.408,279.39 340.452,279.354C340.496,279.318 340.546,279.3 340.602,279.3L341.298,279.3C341.362,279.3 341.414,279.32 341.454,279.36C341.494,279.4 341.514,279.452 341.514,279.516L341.514,280.44ZM344.946,279.132C344.946,279.348 344.896,279.548 344.796,279.732C344.696,279.916 344.566,280.078 344.406,280.218C344.246,280.358 344.064,280.468 343.86,280.548C343.656,280.628 343.446,280.668 343.23,280.668L343.23,282.708L342.09,282.708L342.09,274.068L344.718,274.068C344.782,274.068 344.836,274.09 344.88,274.134C344.924,274.178 344.946,274.232 344.946,274.296L344.946,279.132ZM343.806,275.028L343.23,275.028L343.23,279.744C343.39,279.744 343.526,279.688 343.638,279.576C343.75,279.464 343.806,279.328 343.806,279.168L343.806,275.028ZM347.809,275.387L347.238,274.965L347.238,273.708L346.662,273.708L346.662,276.18L348.15,276.18C348.214,276.18 348.268,276.202 348.312,276.246C348.356,276.29 348.378,276.344 348.378,276.408L348.378,280.452C348.378,280.516 348.356,280.568 348.312,280.608C348.268,280.648 348.214,280.668 348.15,280.668L345.522,280.668L345.522,278.451L346.092,278.029L346.662,278.451L346.662,279.72L347.238,279.72L347.238,277.26L345.75,277.26C345.686,277.26 345.632,277.238 345.588,277.194C345.544,277.15 345.522,277.096 345.522,277.032L345.522,272.976C345.522,272.912 345.542,272.858 345.582,272.814C345.622,272.77 345.674,272.748 345.738,272.748L348.378,272.748L348.378,274.965L347.809,275.387ZM350.094,274.068L350.094,280.668L348.954,280.668L348.954,274.068L350.094,274.068ZM348.954,272.436C348.954,272.372 348.974,272.318 349.014,272.274C349.054,272.23 349.106,272.208 349.17,272.208L349.866,272.208C349.93,272.208 349.984,272.23 350.028,272.274C350.072,272.318 350.094,272.372 350.094,272.436L350.094,273.372C350.086,273.436 350.06,273.486 350.016,273.522C349.972,273.558 349.922,273.576 349.866,273.576L349.17,273.576C349.106,273.576 349.054,273.556 349.014,273.516C348.974,273.476 348.954,273.424 348.954,273.36L348.954,272.436ZM353.526,280.668L352.17,280.668C351.954,280.668 351.754,280.628 351.57,280.548C351.386,280.468 351.228,280.364 351.096,280.236C350.964,280.108 350.86,279.962 350.784,279.798C350.708,279.634 350.67,279.472 350.67,279.312L350.67,274.284C350.67,274.22 350.69,274.168 350.73,274.128C350.77,274.088 350.822,274.068 350.886,274.068L352.386,274.068L352.386,271.668L353.526,271.668L353.526,280.668ZM352.386,279.744L352.386,275.028L351.81,275.028L351.81,279.3C351.81,279.436 351.854,279.544 351.942,279.624C352.03,279.704 352.142,279.744 352.278,279.744L352.386,279.744ZM355.602,280.668C355.394,280.668 355.2,280.628 355.02,280.548C354.84,280.468 354.682,280.364 354.546,280.236C354.41,280.108 354.302,279.962 354.222,279.798C354.142,279.634 354.102,279.472 354.102,279.312L354.102,274.296C354.102,274.232 354.122,274.178 354.162,274.134C354.202,274.09 354.254,274.068 354.318,274.068L356.73,274.068C356.794,274.068 356.848,274.09 356.892,274.134C356.936,274.178 356.958,274.232 356.958,274.296L356.958,277.656C356.958,277.72 356.936,277.772 356.892,277.812C356.848,277.852 356.794,277.872 356.73,277.872L355.242,277.872L355.242,279.276C355.242,279.42 355.286,279.534 355.374,279.618C355.462,279.702 355.574,279.744 355.71,279.744L355.818,279.744L355.818,278.304L356.958,278.304L356.958,280.668L355.602,280.668ZM355.818,275.028L355.242,275.028L355.242,276.924L355.818,276.924L355.818,275.028Z"/>
        </g>
    </g>
</svg>
